<svg width="80" height="38" viewBox="0 0 80 38" fill="none" xmlns="http://www.w3.org/2000/svg">
<rect width="80" height="38" rx="19" fill="#92989B"/>
<g clip-path="url(#clip0_329_889)">
<path d="M22.17 30C25.5652 30 28.666 28.4563 30.7204 25.9269C31.0243 25.5527 30.6929 25.0061 30.2232 25.0955C24.8828 26.1118 19.9785 22.0199 19.9785 16.6326C19.9785 13.5293 21.6409 10.6756 24.3427 9.1391C24.7592 8.90226 24.6544 8.27126 24.1812 8.18391C23.5178 8.06166 22.8446 8.0001 22.17 8C16.094 8 11.1626 12.9204 11.1626 19C11.1626 25.0719 16.0863 30 22.17 30Z" fill="#263238"/>
</g>
<g clip-path="url(#clip1_329_889)">
<path d="M64.9046 18.9553C64.9046 22.1916 62.281 24.8152 59.0447 24.8152C55.8084 24.8152 53.1848 22.1916 53.1848 18.9553C53.1848 15.719 55.8084 13.0954 59.0447 13.0954C62.281 13.0954 64.9046 15.719 64.9046 18.9553ZM58.9702 11.8455C59.3407 11.8455 59.641 11.5453 59.641 11.1748V8.67073C59.641 8.30022 59.3407 8 58.9702 8C58.5997 8 58.2995 8.30022 58.2995 8.67073V11.1748C58.2995 11.5453 58.5997 11.8455 58.9702 11.8455ZM64.495 14.1205C64.6666 14.1205 64.8383 14.055 64.9693 13.924L66.2973 12.5959C66.5592 12.334 66.5592 11.9093 66.2972 11.6474C66.0353 11.3856 65.6106 11.3855 65.3487 11.6475L64.0207 12.9756C63.7588 13.2375 63.7588 13.6622 64.0208 13.9241C64.1517 14.0549 64.3234 14.1205 64.495 14.1205ZM65.0246 23.9312C64.7626 23.6694 64.338 23.6694 64.076 23.9312C63.8141 24.1933 63.8141 24.6179 64.076 24.8798L65.4041 26.2079C65.5351 26.3388 65.7068 26.4043 65.8784 26.4043C66.05 26.4043 66.2217 26.3388 66.3527 26.2079C66.6147 25.9458 66.6147 25.5212 66.3527 25.2593L65.0246 23.9312ZM53.1202 23.9866L51.7921 25.3146C51.5302 25.5767 51.5302 26.0013 51.7921 26.2632C51.9232 26.3941 52.0949 26.4596 52.2665 26.4596C52.4381 26.4596 52.6098 26.3941 52.7408 26.2632L54.0689 24.9352C54.3308 24.6731 54.3308 24.2485 54.0689 23.9866C53.8068 23.7247 53.3822 23.7247 53.1202 23.9866ZM53.0648 13.9793C53.1958 14.1103 53.3675 14.1757 53.5392 14.1757C53.7108 14.1757 53.8825 14.1103 54.0134 13.9793C54.2755 13.7174 54.2755 13.2927 54.0135 13.0308L52.6856 11.7028C52.4235 11.4408 51.9988 11.4409 51.737 11.7027C51.475 11.9647 51.475 12.3894 51.737 12.6512L53.0648 13.9793ZM69.3293 18.2398H68.7033H66.8252C66.4547 18.2398 66.1545 18.5401 66.1545 18.9106C66.1545 19.2811 66.4547 19.5813 66.8252 19.5813H68.7033H69.3293C69.6998 19.5813 70 19.2811 70 18.9106C70 18.5401 69.6998 18.2398 69.3293 18.2398ZM59.0596 26.065C58.6891 26.065 58.3889 26.3653 58.3889 26.7358V28.6138V29.3293C58.3889 29.6998 58.6891 30 59.0596 30C59.4302 30 59.7304 29.6998 59.7304 29.3293V28.6138V26.7358C59.7304 26.3653 59.4302 26.065 59.0596 26.065ZM51.935 19C51.935 18.6295 51.6347 18.3293 51.2642 18.3293H49.3862H48.6707C48.3002 18.3293 48 18.6295 48 19C48 19.3705 48.3002 19.6707 48.6707 19.6707H49.3862H51.2642C51.6347 19.6707 51.935 19.3705 51.935 19Z" fill="white"/>
</g>
<defs>
<clipPath id="clip0_329_889">
<rect width="22" height="22" fill="white" transform="translate(10 8)"/>
</clipPath>
<clipPath id="clip1_329_889">
<rect width="22" height="22" fill="white" transform="translate(48 8)"/>
</clipPath>
</defs>
</svg>
